<svg xmlns="http://www.w3.org/2000/svg" width="1500" height="980" viewBox="0 0 1500 980">
<rect width="100%" height="100%" fill="#f8fafc"/>
<text x="750" y="40" text-anchor="middle" font-size="28" font-weight="bold" fill="#111827">ActionRPG AI Stress Test Trends</text>
<text x="750" y="66" text-anchor="middle" font-size="14" fill="#4b5563">Data source: retained performance summaries in Saved/PerfReports</text>
<rect x="70" y="90" width="620" height="300" fill="white" stroke="#d0d7de"/>
<text x="84" y="114" font-size="18" font-weight="bold" fill="#111">Average FPS</text>
<line x1="125" y1="125.0" x2="665" y2="125.0" stroke="#e5e7eb" stroke-dasharray="4 4"/>
<text x="115" y="129.0" text-anchor="end" font-size="11" fill="#555">131.5</text>
<line x1="125" y1="171.0" x2="665" y2="171.0" stroke="#e5e7eb" stroke-dasharray="4 4"/>
<text x="115" y="175.0" text-anchor="end" font-size="11" fill="#555">103.8</text>
<line x1="125" y1="217.0" x2="665" y2="217.0" stroke="#e5e7eb" stroke-dasharray="4 4"/>
<text x="115" y="221.0" text-anchor="end" font-size="11" fill="#555">76.2</text>
<line x1="125" y1="263.0" x2="665" y2="263.0" stroke="#e5e7eb" stroke-dasharray="4 4"/>
<text x="115" y="267.0" text-anchor="end" font-size="11" fill="#555">48.5</text>
<line x1="125" y1="309.0" x2="665" y2="309.0" stroke="#e5e7eb" stroke-dasharray="4 4"/>
<text x="115" y="313.0" text-anchor="end" font-size="11" fill="#555">20.9</text>
<line x1="125" y1="355.0" x2="665" y2="355.0" stroke="#e5e7eb" stroke-dasharray="4 4"/>
<text x="115" y="359.0" text-anchor="end" font-size="11" fill="#555">-6.8</text>
<line x1="125.0" y1="125" x2="125.0" y2="355" stroke="#f0f0f0"/>
<text x="125.0" y="373" text-anchor="middle" font-size="11" fill="#555">2</text>
<line x1="159.4" y1="125" x2="159.4" y2="355" stroke="#f0f0f0"/>
<text x="159.4" y="373" text-anchor="middle" font-size="11" fill="#555">65</text>
<line x1="170.8" y1="125" x2="170.8" y2="355" stroke="#f0f0f0"/>
<text x="170.8" y="373" text-anchor="middle" font-size="11" fill="#555">86</text>
<line x1="351.4" y1="125" x2="351.4" y2="355" stroke="#f0f0f0"/>
<text x="351.4" y="373" text-anchor="middle" font-size="11" fill="#555">417</text>
<line x1="665.0" y1="125" x2="665.0" y2="355" stroke="#f0f0f0"/>
<text x="665.0" y="373" text-anchor="middle" font-size="11" fill="#555">992</text>
<line x1="125" y1="355" x2="665" y2="355" stroke="#666"/>
<line x1="125" y1="125" x2="125" y2="355" stroke="#666"/>
<text x="395.0" y="395" text-anchor="middle" font-size="12" fill="#333">Peak AI Characters</text>
<polyline fill="none" stroke="#1f77b4" stroke-width="3" points="125.0,144.2 159.4,150.2 170.8,190.9 351.4,300.9 665.0,335.8"/>
<circle cx="125.0" cy="144.2" r="4.5" fill="#1f77b4"/>
<text x="125.0" y="134.2" text-anchor="middle" font-size="11" fill="#222">119.98</text>
<circle cx="159.4" cy="150.2" r="4.5" fill="#1f77b4"/>
<text x="159.4" y="140.2" text-anchor="middle" font-size="11" fill="#222">116.34</text>
<circle cx="170.8" cy="190.9" r="4.5" fill="#1f77b4"/>
<text x="170.8" y="180.9" text-anchor="middle" font-size="11" fill="#222">91.90</text>
<circle cx="351.4" cy="300.9" r="4.5" fill="#1f77b4"/>
<text x="351.4" y="290.9" text-anchor="middle" font-size="11" fill="#222">25.79</text>
<circle cx="665.0" cy="335.8" r="4.5" fill="#1f77b4"/>
<text x="665.0" y="325.8" text-anchor="middle" font-size="11" fill="#222">4.76</text>
<rect x="800" y="90" width="620" height="300" fill="white" stroke="#d0d7de"/>
<text x="814" y="114" font-size="18" font-weight="bold" fill="#111">Average Frame Time (ms)</text>
<line x1="855" y1="125.0" x2="1395" y2="125.0" stroke="#e5e7eb" stroke-dasharray="4 4"/>
<text x="845" y="129.0" text-anchor="end" font-size="11" fill="#555">235.6</text>
<line x1="855" y1="171.0" x2="1395" y2="171.0" stroke="#e5e7eb" stroke-dasharray="4 4"/>
<text x="845" y="175.0" text-anchor="end" font-size="11" fill="#555">186.0</text>
<line x1="855" y1="217.0" x2="1395" y2="217.0" stroke="#e5e7eb" stroke-dasharray="4 4"/>
<text x="845" y="221.0" text-anchor="end" font-size="11" fill="#555">136.4</text>
<line x1="855" y1="263.0" x2="1395" y2="263.0" stroke="#e5e7eb" stroke-dasharray="4 4"/>
<text x="845" y="267.0" text-anchor="end" font-size="11" fill="#555">86.9</text>
<line x1="855" y1="309.0" x2="1395" y2="309.0" stroke="#e5e7eb" stroke-dasharray="4 4"/>
<text x="845" y="313.0" text-anchor="end" font-size="11" fill="#555">37.3</text>
<line x1="855" y1="355.0" x2="1395" y2="355.0" stroke="#e5e7eb" stroke-dasharray="4 4"/>
<text x="845" y="359.0" text-anchor="end" font-size="11" fill="#555">-12.3</text>
<line x1="855.0" y1="125" x2="855.0" y2="355" stroke="#f0f0f0"/>
<text x="855.0" y="373" text-anchor="middle" font-size="11" fill="#555">2</text>
<line x1="889.4" y1="125" x2="889.4" y2="355" stroke="#f0f0f0"/>
<text x="889.4" y="373" text-anchor="middle" font-size="11" fill="#555">65</text>
<line x1="900.8" y1="125" x2="900.8" y2="355" stroke="#f0f0f0"/>
<text x="900.8" y="373" text-anchor="middle" font-size="11" fill="#555">86</text>
<line x1="1081.4" y1="125" x2="1081.4" y2="355" stroke="#f0f0f0"/>
<text x="1081.4" y="373" text-anchor="middle" font-size="11" fill="#555">417</text>
<line x1="1395.0" y1="125" x2="1395.0" y2="355" stroke="#f0f0f0"/>
<text x="1395.0" y="373" text-anchor="middle" font-size="11" fill="#555">992</text>
<line x1="855" y1="355" x2="1395" y2="355" stroke="#666"/>
<line x1="855" y1="125" x2="855" y2="355" stroke="#666"/>
<text x="1125.0" y="395" text-anchor="middle" font-size="12" fill="#333">Peak AI Characters</text>
<polyline fill="none" stroke="#d62728" stroke-width="3" points="855.0,335.8 889.4,335.5 900.8,332.9 1081.4,305.6 1395.0,144.2"/>
<circle cx="855.0" cy="335.8" r="4.5" fill="#d62728"/>
<text x="855.0" y="325.8" text-anchor="middle" font-size="11" fill="#222">8.34</text>
<circle cx="889.4" cy="335.5" r="4.5" fill="#d62728"/>
<text x="889.4" y="325.5" text-anchor="middle" font-size="11" fill="#222">8.64</text>
<circle cx="900.8" cy="332.9" r="4.5" fill="#d62728"/>
<text x="900.8" y="322.9" text-anchor="middle" font-size="11" fill="#222">11.52</text>
<circle cx="1081.4" cy="305.6" r="4.5" fill="#d62728"/>
<text x="1081.4" y="295.6" text-anchor="middle" font-size="11" fill="#222">40.91</text>
<circle cx="1395.0" cy="144.2" r="4.5" fill="#d62728"/>
<text x="1395.0" y="134.2" text-anchor="middle" font-size="11" fill="#222">214.96</text>
<rect x="70" y="470" width="620" height="300" fill="white" stroke="#d0d7de"/>
<text x="84" y="494" font-size="18" font-weight="bold" fill="#111">Peak Actors</text>
<line x1="125" y1="505.0" x2="665" y2="505.0" stroke="#e5e7eb" stroke-dasharray="4 4"/>
<text x="115" y="509.0" text-anchor="end" font-size="11" fill="#555">4188.7</text>
<line x1="125" y1="551.0" x2="665" y2="551.0" stroke="#e5e7eb" stroke-dasharray="4 4"/>
<text x="115" y="555.0" text-anchor="end" font-size="11" fill="#555">3337.4</text>
<line x1="125" y1="597.0" x2="665" y2="597.0" stroke="#e5e7eb" stroke-dasharray="4 4"/>
<text x="115" y="601.0" text-anchor="end" font-size="11" fill="#555">2486.1</text>
<line x1="125" y1="643.0" x2="665" y2="643.0" stroke="#e5e7eb" stroke-dasharray="4 4"/>
<text x="115" y="647.0" text-anchor="end" font-size="11" fill="#555">1634.9</text>
<line x1="125" y1="689.0" x2="665" y2="689.0" stroke="#e5e7eb" stroke-dasharray="4 4"/>
<text x="115" y="693.0" text-anchor="end" font-size="11" fill="#555">783.6</text>
<line x1="125" y1="735.0" x2="665" y2="735.0" stroke="#e5e7eb" stroke-dasharray="4 4"/>
<text x="115" y="739.0" text-anchor="end" font-size="11" fill="#555">-67.7</text>
<line x1="125.0" y1="505" x2="125.0" y2="735" stroke="#f0f0f0"/>
<text x="125.0" y="753" text-anchor="middle" font-size="11" fill="#555">2</text>
<line x1="159.4" y1="505" x2="159.4" y2="735" stroke="#f0f0f0"/>
<text x="159.4" y="753" text-anchor="middle" font-size="11" fill="#555">65</text>
<line x1="170.8" y1="505" x2="170.8" y2="735" stroke="#f0f0f0"/>
<text x="170.8" y="753" text-anchor="middle" font-size="11" fill="#555">86</text>
<line x1="351.4" y1="505" x2="351.4" y2="735" stroke="#f0f0f0"/>
<text x="351.4" y="753" text-anchor="middle" font-size="11" fill="#555">417</text>
<line x1="665.0" y1="505" x2="665.0" y2="735" stroke="#f0f0f0"/>
<text x="665.0" y="753" text-anchor="middle" font-size="11" fill="#555">992</text>
<line x1="125" y1="735" x2="665" y2="735" stroke="#666"/>
<line x1="125" y1="505" x2="125" y2="735" stroke="#666"/>
<text x="395.0" y="775" text-anchor="middle" font-size="12" fill="#333">Peak AI Characters</text>
<polyline fill="none" stroke="#2ca02c" stroke-width="3" points="125.0,715.8 159.4,704.2 170.8,676.8 351.4,644.0 665.0,524.2"/>
<circle cx="125.0" cy="715.8" r="4.5" fill="#2ca02c"/>
<text x="125.0" y="705.8" text-anchor="middle" font-size="11" fill="#222">287</text>
<circle cx="159.4" cy="704.2" r="4.5" fill="#2ca02c"/>
<text x="159.4" y="694.2" text-anchor="middle" font-size="11" fill="#222">503</text>
<circle cx="170.8" cy="676.8" r="4.5" fill="#2ca02c"/>
<text x="170.8" y="666.8" text-anchor="middle" font-size="11" fill="#222">1010</text>
<circle cx="351.4" cy="644.0" r="4.5" fill="#2ca02c"/>
<text x="351.4" y="634.0" text-anchor="middle" font-size="11" fill="#222">1617</text>
<circle cx="665.0" cy="524.2" r="4.5" fill="#2ca02c"/>
<text x="665.0" y="514.2" text-anchor="middle" font-size="11" fill="#222">3834</text>
<rect x="800" y="470" width="620" height="300" fill="white" stroke="#d0d7de"/>
<text x="814" y="494" font-size="18" font-weight="bold" fill="#111">Peak Pickup-Like Actors</text>
<line x1="855" y1="505.0" x2="1395" y2="505.0" stroke="#e5e7eb" stroke-dasharray="4 4"/>
<text x="845" y="509.0" text-anchor="end" font-size="11" fill="#555">649.3</text>
<line x1="855" y1="551.0" x2="1395" y2="551.0" stroke="#e5e7eb" stroke-dasharray="4 4"/>
<text x="845" y="555.0" text-anchor="end" font-size="11" fill="#555">509.4</text>
<line x1="855" y1="597.0" x2="1395" y2="597.0" stroke="#e5e7eb" stroke-dasharray="4 4"/>
<text x="845" y="601.0" text-anchor="end" font-size="11" fill="#555">369.5</text>
<line x1="855" y1="643.0" x2="1395" y2="643.0" stroke="#e5e7eb" stroke-dasharray="4 4"/>
<text x="845" y="647.0" text-anchor="end" font-size="11" fill="#555">229.5</text>
<line x1="855" y1="689.0" x2="1395" y2="689.0" stroke="#e5e7eb" stroke-dasharray="4 4"/>
<text x="845" y="693.0" text-anchor="end" font-size="11" fill="#555">89.6</text>
<line x1="855" y1="735.0" x2="1395" y2="735.0" stroke="#e5e7eb" stroke-dasharray="4 4"/>
<text x="845" y="739.0" text-anchor="end" font-size="11" fill="#555">-50.3</text>
<line x1="855.0" y1="505" x2="855.0" y2="735" stroke="#f0f0f0"/>
<text x="855.0" y="753" text-anchor="middle" font-size="11" fill="#555">2</text>
<line x1="889.4" y1="505" x2="889.4" y2="735" stroke="#f0f0f0"/>
<text x="889.4" y="753" text-anchor="middle" font-size="11" fill="#555">65</text>
<line x1="900.8" y1="505" x2="900.8" y2="735" stroke="#f0f0f0"/>
<text x="900.8" y="753" text-anchor="middle" font-size="11" fill="#555">86</text>
<line x1="1081.4" y1="505" x2="1081.4" y2="735" stroke="#f0f0f0"/>
<text x="1081.4" y="753" text-anchor="middle" font-size="11" fill="#555">417</text>
<line x1="1395.0" y1="505" x2="1395.0" y2="735" stroke="#f0f0f0"/>
<text x="1395.0" y="753" text-anchor="middle" font-size="11" fill="#555">992</text>
<line x1="855" y1="735" x2="1395" y2="735" stroke="#666"/>
<line x1="855" y1="505" x2="855" y2="735" stroke="#666"/>
<text x="1125.0" y="775" text-anchor="middle" font-size="12" fill="#333">Peak AI Characters</text>
<polyline fill="none" stroke="#9467bd" stroke-width="3" points="855.0,715.8 889.4,705.0 900.8,559.0 1081.4,685.9 1395.0,524.2"/>
<circle cx="855.0" cy="715.8" r="4.5" fill="#9467bd"/>
<text x="855.0" y="705.8" text-anchor="middle" font-size="11" fill="#222">8</text>
<circle cx="889.4" cy="705.0" r="4.5" fill="#9467bd"/>
<text x="889.4" y="695.0" text-anchor="middle" font-size="11" fill="#222">41</text>
<circle cx="900.8" cy="559.0" r="4.5" fill="#9467bd"/>
<text x="900.8" y="549.0" text-anchor="middle" font-size="11" fill="#222">485</text>
<circle cx="1081.4" cy="685.9" r="4.5" fill="#9467bd"/>
<text x="1081.4" y="675.9" text-anchor="middle" font-size="11" fill="#222">99</text>
<circle cx="1395.0" cy="524.2" r="4.5" fill="#9467bd"/>
<text x="1395.0" y="514.2" text-anchor="middle" font-size="11" fill="#222">591</text>
<text x="750" y="900" text-anchor="middle" font-size="15" fill="#111827">Peak Physical Memory: 2 AI -> 2808 MB | 65 AI -> 2828 MB | 86 AI -> 2952 MB | 417 AI -> 3004 MB | 992 AI -> 3429 MB</text>
<text x="750" y="930" text-anchor="middle" font-size="13" fill="#6b7280">Retained samples: low load, medium load, high load, heavy load, extreme overload</text>
</svg>